<svg width="223" height="227" viewBox="0 0 223 227" fill="none" xmlns="http://www.w3.org/2000/svg">
<path d="M117 15H153C183.928 15 209 40.0721 209 71V108H173C142.072 108 117 82.9279 117 52V15Z" fill="#52CC16"/>
<path d="M106 15H70C39.0721 15 14 40.0721 14 71V108H50C80.9279 108 106 82.9279 106 52V15Z" fill="#52CC16"/>
<path d="M106 212H70C39.0721 212 14 186.928 14 156V119H50C80.9279 119 106 144.072 106 175V212Z" fill="#52CC16"/>
<path d="M117 212H153C183.928 212 209 186.928 209 156V119H173C142.072 119 117 144.072 117 175V212Z" fill="#52CC16"/>
<line x1="111" y1="86" x2="111" y2="141" stroke="#52CC16" stroke-width="16"/>
<line x1="139" y1="113" x2="84" y2="113" stroke="#52CC16" stroke-width="16"/>
</svg>
